<?xml version="1.0" encoding="utf-8"?>
<!-- Generator: Adobe Illustrator 24.0.1, SVG Export Plug-In . SVG Version: 6.00 Build 0)  -->
<svg version="1.1" id="Layer_1" xmlns="http://www.w3.org/2000/svg" xmlns:xlink="http://www.w3.org/1999/xlink" x="0px" y="0px"
	 viewBox="0 0 38.48 37.54" style="enable-background:new 0 0 38.48 37.54;" xml:space="preserve">
<style type="text/css">
	.st0{fill:none;stroke:#8EC15A;stroke-miterlimit:10;}
	.st1{fill:none;stroke:#62A971;stroke-miterlimit:10;}
	.st2{fill:none;stroke:#6A5EA6;stroke-miterlimit:10;}
	.st3{fill:none;stroke:#B469A7;stroke-miterlimit:10;}
</style>
<polyline class="st0" points="5.85,17.23 0.66,22.32 3.26,25.74 7.32,23.98 5.75,28.18 10.45,28.87 10.45,32.29 15.04,36.89 
	21.21,32.49 "/>
<path class="st1" d="M22.97,32.2L5.65,14.49l9.59-9.2c0,0,2.05-1.17,4.7,0.88s3.03,2.84,3.03,2.84l8.61-8.22
	c0,0,2.45-1.17,4.79,1.17c0,0,2.93,2.15,0.88,4.7s-8.61,8.12-8.61,8.12l3.42,4.01c0,0,1.37,1.76-0.68,5.18S22.97,32.2,22.97,32.2z"
	/>
<line class="st2" x1="29.64" y1="26.23" x2="13.28" y2="10.28"/>
<line class="st3" x1="27.02" y1="28.82" x2="10.94" y2="12.63"/>
</svg>
